<svg xmlns="http://www.w3.org/2000/svg" width="20.31" height="16.95" viewBox="0 0 20.31 16.95">
    <path fill="#d2d3d9" d="M4.195 15.9h2.389a1.206 1.206 0 0 0 1.195-1.211v-2.425a1.206 1.206 0 0 0-1.195-1.211H4.195A1.206 1.206 0 0 0 3 12.264v2.421A1.206 1.206 0 0 0 4.195 15.9zm0 6.054h2.389a1.206 1.206 0 0 0 1.195-1.211v-2.425a1.206 1.206 0 0 0-1.195-1.211H4.195A1.206 1.206 0 0 0 3 18.318v2.421a1.206 1.206 0 0 0 1.195 1.211zm0-12.107h2.389a1.206 1.206 0 0 0 1.195-1.215V6.211A1.206 1.206 0 0 0 6.584 5H4.195A1.206 1.206 0 0 0 3 6.211v2.421a1.206 1.206 0 0 0 1.195 1.211zm5.973 6.053h11.947a1.206 1.206 0 0 0 1.195-1.211v-2.425a1.206 1.206 0 0 0-1.195-1.211H10.168a1.206 1.206 0 0 0-1.195 1.211v2.421a1.206 1.206 0 0 0 1.195 1.215zm0 6.054h11.947a1.206 1.206 0 0 0 1.195-1.211v-2.425a1.206 1.206 0 0 0-1.195-1.211H10.168a1.206 1.206 0 0 0-1.195 1.211v2.421a1.206 1.206 0 0 0 1.195 1.211zM8.973 6.211v2.421a1.206 1.206 0 0 0 1.195 1.211h11.947a1.206 1.206 0 0 0 1.195-1.211V6.211A1.206 1.206 0 0 0 22.115 5H10.168a1.206 1.206 0 0 0-1.195 1.211z" transform="translate(-3 -5)"/>
</svg>
