<svg xmlns="http://www.w3.org/2000/svg" width="24" height="24" viewBox="0 0 24 24">
    <g transform="translate(-316 -29)">
        <circle cx="2.5" cy="2.5" r="2.5" fill="#167af9" transform="translate(335 29)"/>
        <g>
            <path fill="none" d="M0 0h24v24H0z" transform="translate(316 29)"/>
            <path fill="#404750" d="M19.29 17.29L18 16v-5c0-3.07-1.64-5.64-4.5-6.32V4a1.5 1.5 0 0 0-3 0v.68C7.63 5.36 6 7.92 6 11v5l-1.29 1.29a1 1 0 0 0 .7 1.71h13.17a1 1 0 0 0 .71-1.71zM16 17H8v-6c0-2.48 1.51-4.5 4-4.5s4 2.02 4 4.5zm-4 5a2.006 2.006 0 0 0 2-2h-4a2 2 0 0 0 2 2z" transform="translate(316 29)"/>
        </g>
    </g>
</svg>
