<svg xmlns="http://www.w3.org/2000/svg" width="39" height="39" viewBox="0 0 39 39">
    <defs>
        <style>
            .cls-2{fill:#fff}
        </style>
    </defs>
    <g id="그룹_224" transform="translate(-20 -94)">
        <circle id="타원_26" cx="19.5" cy="19.5" r="19.5" fill="#167af9" transform="translate(20 94)"/>
        <g id="credit-card_1_" transform="rotate(45 -9.088 136.589)">
            <path id="패스_77" d="M17.182 82.785v-.906A1.879 1.879 0 0 0 15.3 80H1.879A1.879 1.879 0 0 0 0 81.879v.906a.168.168 0 0 0 .168.168h16.846a.168.168 0 0 0 .168-.168z" class="cls-2"/>
            <path id="패스_78" d="M0 200.168v5.738a1.879 1.879 0 0 0 1.879 1.879H15.3a1.879 1.879 0 0 0 1.879-1.879v-5.738a.168.168 0 0 0-.168-.168H.168a.168.168 0 0 0-.168.168zm4.3 4.4a.537.537 0 0 1-.537.537h-.541a.537.537 0 0 1-.537-.537v-.537a.537.537 0 0 1 .537-.537h.537a.537.537 0 0 1 .537.537z" class="cls-2" transform="translate(0 -115.973)"/>
        </g>
    </g>
</svg>
