<svg xmlns="http://www.w3.org/2000/svg" width="39" height="39" viewBox="0 0 39 39">
    <g transform="translate(-299 -101)">
        <circle cx="19.5" cy="19.5" r="19.5" fill="#167af9" transform="translate(299 101)"/>
        <path fill="none" d="M0 0H24V24H0z" transform="translate(307 107)"/>
        <path fill="#fff" d="M16.333 3H4.667A1.672 1.672 0 0 0 3 4.667v11.666A1.672 1.672 0 0 0 4.667 18h11.666A1.672 1.672 0 0 0 18 16.333V4.667A1.672 1.672 0 0 0 16.333 3zm-5 11.667H7.167a.833.833 0 1 1 0-1.667h4.167a.833.833 0 1 1 0 1.667zm2.5-3.333H7.167a.833.833 0 1 1 0-1.667h6.667a.833.833 0 0 1 0 1.667zm0-3.333H7.167a.833.833 0 1 1 0-1.667h6.667a.833.833 0 0 1 0 1.667z" transform="translate(308 110)"/>
    </g>
</svg>
